<svg version="1.2" xmlns="http://www.w3.org/2000/svg" viewBox="0 0 1000 1000" width="1000" height="1000"><style>.a{fill:#274c4a}.b{fill:#fff}</style><path fill-rule="evenodd" class="a" d="m79 0h842c43.6 0 79 35.4 79 79v842c0 43.6-35.4 79-79 79h-842c-43.6 0-79-35.4-79-79v-842c0-43.6 35.4-79 79-79z"/><path fill-rule="evenodd" class="a" d="m1000 0v1000h-1000v-1000z"/><path class="b" d="m304.6 803h-110.4v-606.2h181.1l95.5 337.6q5.3 17.6 10.6 39.7 5.3 22.1 9.7 42.4 5.3 20.4 7.9 35.4h7.1q1.8-13.3 5.3-32.7 3.6-19.5 8-41.5 5.3-23 11.5-44.2l95.4-336.7h179.4v606.2h-114.9v-306.6q0-40.7 0.9-81.4 0.9-40.6 1.8-69.8 1.7-29.1 1.7-34.4h-7q-1.8 7.9-8.9 34.4-7 26.5-15 57.5-8 30.9-14.1 53l-99.9 347.3h-106l-99.9-346.4q-5.3-18.6-12.4-44.2-6.2-26.5-13.2-53.9-6.2-27.4-11.5-47.7h-7.1q0.9 23.8 1.8 57.4 0.9 32.7 1.7 67.2 0.9 33.6 0.9 61z"/></svg>